<?xml version="1.0" encoding="UTF-8" standalone="no"?><!DOCTYPE svg PUBLIC "-//W3C//DTD SVG 1.1//EN" "http://www.w3.org/Graphics/SVG/1.1/DTD/svg11.dtd"><svg width="100%" height="100%" viewBox="0 0 1278 418" version="1.1" xmlns="http://www.w3.org/2000/svg" xmlns:xlink="http://www.w3.org/1999/xlink" xml:space="preserve" xmlns:serif="http://www.serif.com/" style="fill-rule:evenodd;clip-rule:evenodd;stroke-linecap:round;stroke-linejoin:round;stroke-miterlimit:1.5;"><g><path d="M42.617,307.585l0,-58.727l-21.033,-1.004" style="fill:#545038;fill-opacity:0;stroke:#000;stroke-width:3.13px;"/><path d="M21.583,247.848l0,60.575" style="fill:none;stroke:#000;stroke-width:3.13px;"/><path d="M79.901,335.581l0,-119.904" style="fill:none;stroke:#000;stroke-width:3.13px;"/><path d="M149.894,156.739l0,175.088" style="fill:none;stroke:#000;stroke-width:3.13px;"/><path d="M376.904,83.638l0,332.222" style="fill:none;stroke:#000;stroke-width:3.13px;"/><path d="M301.208,185.318l33.819,-9.735l0,132.061l-33.819,-2.492l0,-119.835Z" style="fill:#545038;fill-opacity:0;stroke:#000;stroke-width:3.13px;"/><path d="M301.208,185.267l33.819,7.791" style="fill:none;stroke:#000;stroke-width:3.13px;"/><path d="M284.426,128.394l92.477,-44.756l0,332.222l-41.877,-13.916l0,-55.436l-50.593,-9.142" style="fill:#545038;fill-opacity:0;stroke:#000;stroke-width:3.13px;"/><path d="M376.904,83.638l58.875,34.722l0,273.691l-58.875,23.81" style="fill:#545038;fill-opacity:0;stroke:#000;stroke-width:3.13px;"/><path d="M1.562,237.542l71.869,-97.497l0,196.099l-5.754,-3.111l0.007,-114.371l-46.102,29.186l0,60.575l-20.021,-10.696l0,-60.185Z" style="fill:#545038;fill-opacity:0;stroke:#000;stroke-width:3.13px;"/><path d="M73.431,140.121l76.462,16.848l0,172.507l-38.231,3.442l0,-113.906l-31.762,-3.257l0,119.904l-6.469,0.562" style="fill:#545038;fill-opacity:0;stroke:#000;stroke-width:3.13px;"/><path d="M21.583,308.423l21.033,-0.838l25.059,9.064" style="fill:#545038;fill-opacity:0;stroke:#000;stroke-width:3.13px;"/><path d="M213.979,204.633l-20.635,9.602l20.635,34.623" style="fill:#545038;fill-opacity:0;stroke:#000;stroke-width:3.13px;"/><path d="M168.514,255.265l18.436,0.864" style="fill:none;stroke:#000;stroke-width:3.13px;"/><path d="M111.319,148.38l-0.008,-29.504l102.667,-117.313l0,203.07l-20.635,9.603l20.635,34.622l0,97.86l-10.857,-2.94l-16.733,-90.8l-17.875,2.287l0,79.166l-18.62,-5.028" style="fill:#545038;fill-opacity:0;stroke:#000;stroke-width:3.13px;"/><path d="M213.979,248.858l70.407,4.273" style="fill:none;stroke:#000;stroke-width:3.13px;"/><path d="M193.344,214.236l74.025,9.578" style="fill:none;stroke:#000;stroke-width:3.13px;"/><path d="M168.514,85.741l24.83,-24.439l0,116.065l-24.83,11.449l0,-103.076Z" style="fill:#545038;fill-opacity:0;stroke:#000;stroke-width:3.13px;"/><path d="M168.514,85.741l24.83,8.923" style="fill:none;stroke:#000;stroke-width:3.13px;"/><path d="M213.979,1.562l70.407,39.579l0,174.259l-17.446,8.296l17.446,29.372l0,84.304l-70.407,9.344" style="fill:#545038;fill-opacity:0;stroke:#000;stroke-width:3.13px;"/><path d="M168.514,334.444l32.281,-3.199" style="fill:none;stroke:#000;stroke-width:3.13px;"/><path d="M213.979,204.633l70.407,10.991" style="fill:none;stroke:#000;stroke-width:3.13px;"/><path d="M42.617,248.858l25.059,-10.941" style="fill:none;stroke:#000;stroke-width:3.13px;"/><path d="M79.907,321.173l31.755,11.571" style="fill:none;stroke:#000;stroke-width:3.13px;"/><path d="M79.907,232.619l31.755,-13.566" style="fill:none;stroke:#000;stroke-width:3.13px;"/></g><g transform="matrix(0.747746,0,0,1,-273.89577,0)"><g transform="matrix(170.785369,0,0,170.785369,2088.56191,357.716882)"></g><text x="988.214px" y="357.717px" style="font-family:'BankGothicBT-Light', 'BankGothic Lt BT', sans-serif;font-stretch:semi-expanded;font-size:170.785px;stroke:#fff;stroke-width:0.85px;stroke-linecap:butt;stroke-miterlimit:2;">arquitectos</text></g><g transform="matrix(1,0,0,0.613121,0,-1074.880352)"><g transform="matrix(87.386417,0,0,87.386417,1284.294261,2185.266079)"></g><text x="460.14px" y="2185.266px" style="font-family:'BankGothicBT-Light', 'BankGothic Lt BT', sans-serif;font-stretch:semi-expanded;font-size:87.386px;stroke:#fff;stroke-width:0.9px;stroke-linecap:butt;stroke-miterlimit:2;">bogovich fuentes</text></g></svg>